<svg width="200" height="200" viewBox="0 0 200 200" fill="none" xmlns="http://www.w3.org/2000/svg">
<g clip-path="url(#clip0_1_24)">
<path d="M94.5413 91.2236C92.8985 95.1334 82.524 129.96 79.8911 131.418C79.178 135.881 62.1632 174.242 55.2765 181.099C42.4661 155.25 30.3949 126.501 31.841 123.644C28.7307 116.819 31.6082 98.4907 34.0859 92.4C37.9497 65.9128 86.7476 34.3332 104.192 15.9433C107.832 14.2845 97.9679 83.0683 94.5413 91.2236Z" fill="#00AA95"/>
<path d="M86.8357 81.548C86.8357 81.548 91.272 67.29 73.6056 124.318C55.9392 181.346 73.6056 124.318 55.9392 181.346C93.1241 167.147 118.749 145.203 118.953 142.007C125.096 137.705 131.919 120.452 132.876 113.947C142.99 89.1638 131.826 50.0551 104.855 16.191C102.56 12.9144 86.8357 81.548 86.8357 81.548Z" fill="#00AA95"/>
<path d="M125.085 105.5C125.085 105.5 135.035 94.3655 95.31 138.933C55.5851 183.5 95.31 138.933 55.5851 183.5C95.31 186 127.728 176.657 129.238 173.834C136.613 172.468 149.976 159.598 153.544 154.074C173.025 135.717 179.085 95.5001 168.585 53.5001C167.856 49.5671 125.085 105.5 125.085 105.5Z" fill="#00CC76"/>
<path d="M128.085 117.5C124.969 120.377 101.086 147.765 98.0854 148C95.5858 151.765 64.1949 179.616 55.0848 183C54.1472 154.166 55.0848 123 57.5854 121C57.5853 113.5 67.8045 98.0148 72.5849 93.5C87.0849 71 144.585 62.5 168.085 53C172.085 53 134.585 111.5 128.085 117.5Z" fill="#A5E887"/>
</g>
<defs>
<clipPath id="clip0_1_24">
<rect width="200" height="200" fill="white"/>
</clipPath>
</defs>
</svg>
