<svg width="200" height="249" viewBox="0 0 200 249" fill="none" xmlns="http://www.w3.org/2000/svg">
<g clip-path="url(#clip0_1_24)">
<path d="M28.008 229.5V207.1H32.168V225.98H43.88V229.5H28.008ZM49.3402 229.5V212.412H53.3403V229.5H49.3402ZM51.3562 209.596C50.6096 209.596 49.9909 209.361 49.5002 208.892C49.0309 208.423 48.7962 207.857 48.7962 207.196C48.7962 206.513 49.0309 205.948 49.5002 205.5C49.9909 205.031 50.6096 204.796 51.3562 204.796C52.1029 204.796 52.7109 205.02 53.1802 205.468C53.6709 205.895 53.9162 206.439 53.9162 207.1C53.9162 207.804 53.6816 208.401 53.2122 208.892C52.7429 209.361 52.1242 209.596 51.3562 209.596ZM61.6942 229.5V211.452C61.6942 209.66 62.2169 208.231 63.2622 207.164C64.3289 206.076 65.8436 205.532 67.8062 205.532C68.5102 205.532 69.1716 205.607 69.7902 205.756C70.4302 205.905 70.9636 206.14 71.3902 206.46L70.3022 209.468C70.0036 209.233 69.6622 209.063 69.2782 208.956C68.8942 208.828 68.4996 208.764 68.0942 208.764C67.2622 208.764 66.6329 208.999 66.2062 209.468C65.7796 209.916 65.5662 210.599 65.5662 211.516V213.436L65.6942 215.228V229.5H61.6942ZM58.8782 215.74V212.54H70.2702V215.74H58.8782ZM82.9528 229.724C81.2034 229.724 79.6461 229.351 78.2808 228.604C76.9154 227.836 75.8381 226.791 75.0488 225.468C74.2594 224.145 73.8648 222.641 73.8648 220.956C73.8648 219.249 74.2594 217.745 75.0488 216.444C75.8381 215.121 76.9154 214.087 78.2808 213.34C79.6461 212.593 81.2034 212.22 82.9528 212.22C84.7234 212.22 86.2914 212.593 87.6568 213.34C89.0434 214.087 90.1208 215.111 90.8888 216.412C91.6781 217.713 92.0728 219.228 92.0728 220.956C92.0728 222.641 91.6781 224.145 90.8888 225.468C90.1208 226.791 89.0434 227.836 87.6568 228.604C86.2914 229.351 84.7234 229.724 82.9528 229.724ZM82.9528 226.3C83.9341 226.3 84.8088 226.087 85.5768 225.66C86.3448 225.233 86.9421 224.615 87.3688 223.804C87.8168 222.993 88.0408 222.044 88.0408 220.956C88.0408 219.847 87.8168 218.897 87.3688 218.108C86.9421 217.297 86.3448 216.679 85.5768 216.252C84.8088 215.825 83.9448 215.612 82.9848 215.612C82.0034 215.612 81.1288 215.825 80.3608 216.252C79.6141 216.679 79.0168 217.297 78.5688 218.108C78.1208 218.897 77.8968 219.847 77.8968 220.956C77.8968 222.044 78.1208 222.993 78.5688 223.804C79.0168 224.615 79.6141 225.233 80.3608 225.66C81.1288 226.087 81.9928 226.3 82.9528 226.3ZM98.4577 229.5V205.756H102.458V229.5H98.4577ZM117.948 229.724C116.198 229.724 114.641 229.351 113.276 228.604C111.91 227.836 110.833 226.791 110.044 225.468C109.254 224.145 108.86 222.641 108.86 220.956C108.86 219.249 109.254 217.745 110.044 216.444C110.833 215.121 111.91 214.087 113.276 213.34C114.641 212.593 116.198 212.22 117.948 212.22C119.718 212.22 121.286 212.593 122.652 213.34C124.038 214.087 125.116 215.111 125.884 216.412C126.673 217.713 127.068 219.228 127.068 220.956C127.068 222.641 126.673 224.145 125.884 225.468C125.116 226.791 124.038 227.836 122.652 228.604C121.286 229.351 119.718 229.724 117.948 229.724ZM117.948 226.3C118.929 226.3 119.804 226.087 120.572 225.66C121.34 225.233 121.937 224.615 122.364 223.804C122.812 222.993 123.036 222.044 123.036 220.956C123.036 219.847 122.812 218.897 122.364 218.108C121.937 217.297 121.34 216.679 120.572 216.252C119.804 215.825 118.94 215.612 117.98 215.612C116.998 215.612 116.124 215.825 115.356 216.252C114.609 216.679 114.012 217.297 113.564 218.108C113.116 218.897 112.892 219.847 112.892 220.956C112.892 222.044 113.116 222.993 113.564 223.804C114.012 224.615 114.609 225.233 115.356 225.66C116.124 226.087 116.988 226.3 117.948 226.3ZM141.197 235.932C139.618 235.932 138.071 235.719 136.557 235.292C135.063 234.887 133.837 234.289 132.877 233.5L134.669 230.492C135.415 231.111 136.354 231.601 137.485 231.964C138.637 232.348 139.799 232.54 140.973 232.54C142.85 232.54 144.226 232.103 145.101 231.228C145.975 230.375 146.413 229.084 146.413 227.356V224.316L146.733 220.444L146.605 216.572V212.412H150.413V226.908C150.413 230.001 149.623 232.273 148.045 233.724C146.466 235.196 144.183 235.932 141.197 235.932ZM140.685 228.732C139.063 228.732 137.591 228.391 136.269 227.708C134.967 227.004 133.933 226.033 133.165 224.796C132.418 223.559 132.045 222.108 132.045 220.444C132.045 218.801 132.418 217.361 133.165 216.124C133.933 214.887 134.967 213.927 136.269 213.244C137.591 212.561 139.063 212.22 140.685 212.22C142.135 212.22 143.437 212.508 144.589 213.084C145.741 213.66 146.658 214.556 147.341 215.772C148.045 216.988 148.397 218.545 148.397 220.444C148.397 222.343 148.045 223.911 147.341 225.148C146.658 226.364 145.741 227.271 144.589 227.868C143.437 228.444 142.135 228.732 140.685 228.732ZM141.293 225.34C142.295 225.34 143.191 225.137 143.981 224.732C144.77 224.305 145.378 223.729 145.805 223.004C146.253 222.257 146.477 221.404 146.477 220.444C146.477 219.484 146.253 218.641 145.805 217.916C145.378 217.169 144.77 216.604 143.981 216.22C143.191 215.815 142.295 215.612 141.293 215.612C140.29 215.612 139.383 215.815 138.573 216.22C137.783 216.604 137.165 217.169 136.717 217.916C136.29 218.641 136.077 219.484 136.077 220.444C136.077 221.404 136.29 222.257 136.717 223.004C137.165 223.729 137.783 224.305 138.573 224.732C139.383 225.137 140.29 225.34 141.293 225.34ZM159.639 235.932C158.807 235.932 157.975 235.793 157.143 235.516C156.311 235.239 155.618 234.855 155.063 234.364L156.663 231.42C157.069 231.783 157.527 232.071 158.039 232.284C158.551 232.497 159.074 232.604 159.607 232.604C160.333 232.604 160.919 232.423 161.367 232.06C161.815 231.697 162.231 231.089 162.615 230.236L163.607 227.996L163.927 227.516L170.391 212.412H174.231L166.231 230.876C165.698 232.156 165.101 233.169 164.439 233.916C163.799 234.663 163.074 235.185 162.263 235.484C161.474 235.783 160.599 235.932 159.639 235.932ZM163.159 230.108L155.447 212.412H159.607L165.879 227.164L163.159 230.108Z" fill="#00AA95"/>
<path d="M94.5413 91.2236C92.8985 95.1334 82.524 129.96 79.8911 131.418C79.178 135.881 62.1632 174.242 55.2765 181.099C42.4661 155.25 30.3949 126.501 31.841 123.644C28.7307 116.819 31.6082 98.4907 34.0859 92.4C37.9497 65.9128 86.7476 34.3332 104.192 15.9433C107.832 14.2845 97.9679 83.0683 94.5413 91.2236Z" fill="#00AA95"/>
<path d="M86.8357 81.548C86.8357 81.548 91.272 67.29 73.6056 124.318C55.9392 181.346 73.6056 124.318 55.9392 181.346C93.1241 167.147 118.749 145.203 118.953 142.007C125.096 137.705 131.919 120.452 132.876 113.947C142.99 89.1638 131.826 50.0551 104.855 16.191C102.56 12.9144 86.8357 81.548 86.8357 81.548Z" fill="#00AA95"/>
<path d="M125.085 105.5C125.085 105.5 135.035 94.3655 95.31 138.933C55.5851 183.5 95.31 138.933 55.5851 183.5C95.31 186 127.728 176.657 129.238 173.834C136.613 172.468 149.976 159.598 153.544 154.074C173.025 135.717 179.085 95.5001 168.585 53.5001C167.856 49.5671 125.085 105.5 125.085 105.5Z" fill="#00CC76"/>
<path d="M128.085 117.5C124.969 120.377 101.086 147.765 98.0854 148C95.5858 151.765 64.1949 179.616 55.0848 183C54.1472 154.166 55.0848 123 57.5854 121C57.5853 113.5 67.8045 98.0148 72.5849 93.5C87.0849 71 144.585 62.5 168.085 53C172.085 53 134.585 111.5 128.085 117.5Z" fill="#A5E887"/>
</g>
<defs>
<clipPath id="clip0_1_24">
<rect width="200" height="249" fill="white"/>
</clipPath>
</defs>
</svg>
